<svg width="51" height="48" viewBox="0 0 51 48" fill="none" xmlns="http://www.w3.org/2000/svg">
<path d="M27.7143 10C24.1907 10 20.8114 11.475 18.3199 14.1005C15.8283 16.726 14.4286 20.287 14.4286 24H10L15.7424 30.0511L15.8457 30.2689L21.8095 24H17.381C17.381 17.98 22.0014 13.1111 27.7143 13.1111C33.4271 13.1111 38.0476 17.98 38.0476 24C38.0476 30.02 33.4271 34.8889 27.7143 34.8889C24.8652 34.8889 22.2819 33.66 20.4219 31.6844L18.3257 33.8933C19.556 35.1969 21.019 36.2309 22.6304 36.9358C24.2418 37.6406 25.9696 38.0023 27.7143 38C31.2379 38 34.6171 36.525 37.1087 33.8995C39.6003 31.274 41 27.713 41 24C41 20.287 39.6003 16.726 37.1087 14.1005C34.6171 11.475 31.2379 10 27.7143 10ZM26.2381 17.7778V25.5555L32.5562 29.5067L33.619 27.6244L28.4524 24.3889V17.7778H26.2381Z" fill="#FEFEFF"/>
</svg>
