<svg width="31" height="28" viewBox="0 0 31 28" fill="none" xmlns="http://www.w3.org/2000/svg">
<path d="M27.3326 15.365C27.3963 14.917 27.4441 14.462 27.4441 14C27.4441 13.538 27.3963 13.083 27.3326 12.635L30.7019 10.318C31.0046 10.108 31.0922 9.73 30.8931 9.422L27.7069 4.571C27.5078 4.27 27.0936 4.144 26.7351 4.27L22.7684 5.677C21.948 5.124 21.0479 4.655 20.0761 4.298L19.4787 0.588C19.407 0.259 19.0804 0 18.6822 0H12.3099C11.9116 0 11.585 0.259 11.5213 0.588L10.9239 4.298C9.96098 4.65095 9.05564 5.11466 8.2316 5.677L4.26485 4.27C4.08855 4.21089 3.89409 4.2087 3.71613 4.26382C3.53816 4.31894 3.38824 4.4278 3.29308 4.571L0.106931 9.422C-0.0922032 9.723 -0.00458398 10.101 0.2981 10.318L3.65948 12.635C3.59576 13.083 3.54797 13.538 3.54797 14C3.54797 14.462 3.59576 14.917 3.65948 15.365L0.2981 17.682C-0.00458398 17.892 -0.0922032 18.27 0.106931 18.578L3.29308 23.429C3.49221 23.73 3.90641 23.856 4.26485 23.73L8.2316 22.323C9.05204 22.876 9.95212 23.345 10.9239 23.702L11.5213 27.412C11.585 27.741 11.9116 28 12.3099 28H18.6822C19.0804 28 19.407 27.741 19.4707 27.412L20.0681 23.702C21.031 23.3491 21.9364 22.8853 22.7604 22.323L26.7272 23.73C26.9035 23.7891 27.0979 23.7913 27.2759 23.7362C27.4539 23.6811 27.6038 23.5722 27.699 23.429L30.8851 18.578C31.0842 18.277 30.9966 17.899 30.6939 17.682L27.3326 15.365ZM15.496 18.9C12.4134 18.9 9.92026 16.709 9.92026 14C9.92026 11.291 12.4134 9.1 15.496 9.1C18.5786 9.1 21.0718 11.291 21.0718 14C21.0718 16.709 18.5786 18.9 15.496 18.9Z" fill="#FEFEFF"/>
</svg>
