<svg width="31" height="28" viewBox="0 0 31 28" fill="none" xmlns="http://www.w3.org/2000/svg">
<path d="M20.0208 16.3333H19.0004L18.6388 16.0183C19.9483 14.6464 20.6681 12.8948 20.6667 11.0833C20.6667 9.58349 20.1743 8.11734 19.2517 6.87026C18.3292 5.62319 17.0179 4.65121 15.4838 4.07725C13.9496 3.50329 12.2615 3.35311 10.6329 3.64572C9.00426 3.93832 7.50826 4.66056 6.33409 5.72111C5.15991 6.78166 4.36028 8.13288 4.03633 9.6039C3.71237 11.0749 3.87864 12.5997 4.5141 13.9854C5.14956 15.371 6.22567 16.5554 7.60636 17.3886C8.98705 18.2219 10.6103 18.6667 12.2708 18.6667C14.3504 18.6667 16.2621 17.9783 17.7346 16.835L18.0833 17.1617V18.0833L24.5417 23.905L26.4663 22.1667L20.0208 16.3333ZM12.2708 16.3333C9.05459 16.3333 6.45834 13.9883 6.45834 11.0833C6.45834 8.17834 9.05459 5.83334 12.2708 5.83334C15.4871 5.83334 18.0833 8.17834 18.0833 11.0833C18.0833 13.9883 15.4871 16.3333 12.2708 16.3333Z" fill="black"/>
</svg>
