<svg width="31" height="28" viewBox="0 0 31 28" fill="none" xmlns="http://www.w3.org/2000/svg">
<path d="M26.35 0H4.65C3.41674 0 2.234 0.465788 1.36195 1.2949C0.489909 2.124 0 3.24852 0 4.42105V26.5263C0.000473303 26.7874 0.0739176 27.0438 0.212816 27.269C0.351714 27.4943 0.551077 27.6805 0.7905 27.8084C1.02216 27.9332 1.28373 27.9992 1.55 28C1.8282 27.9999 2.10125 27.9287 2.3405 27.7937L9.3 23.7853C9.55725 23.6397 9.85334 23.568 10.1525 23.5789H26.35C27.5833 23.5789 28.766 23.1132 29.638 22.2841C30.5101 21.4549 31 20.3304 31 19.1579V4.42105C31 3.24852 30.5101 2.124 29.638 1.2949C28.766 0.465788 27.5833 0 26.35 0ZM9.3 13.2632C8.99344 13.2632 8.69376 13.1767 8.43887 13.0148C8.18397 12.8529 7.9853 12.6227 7.86799 12.3534C7.75067 12.0841 7.71998 11.7878 7.77978 11.502C7.83959 11.2161 7.98721 10.9535 8.20398 10.7474C8.42076 10.5413 8.69694 10.401 8.99761 10.3441C9.29828 10.2872 9.60993 10.3164 9.89316 10.428C10.1764 10.5395 10.4185 10.7284 10.5888 10.9707C10.7591 11.2131 10.85 11.498 10.85 11.7895C10.85 12.1803 10.6867 12.5552 10.396 12.8315C10.1053 13.1079 9.71109 13.2632 9.3 13.2632ZM15.5 13.2632C15.1934 13.2632 14.8938 13.1767 14.6389 13.0148C14.384 12.8529 14.1853 12.6227 14.068 12.3534C13.9507 12.0841 13.92 11.7878 13.9798 11.502C14.0396 11.2161 14.1872 10.9535 14.404 10.7474C14.6208 10.5413 14.8969 10.401 15.1976 10.3441C15.4983 10.2872 15.8099 10.3164 16.0932 10.428C16.3764 10.5395 16.6185 10.7284 16.7888 10.9707C16.9591 11.2131 17.05 11.498 17.05 11.7895C17.05 12.1803 16.8867 12.5552 16.596 12.8315C16.3053 13.1079 15.9111 13.2632 15.5 13.2632ZM21.7 13.2632C21.3934 13.2632 21.0938 13.1767 20.8389 13.0148C20.584 12.8529 20.3853 12.6227 20.268 12.3534C20.1507 12.0841 20.12 11.7878 20.1798 11.502C20.2396 11.2161 20.3872 10.9535 20.604 10.7474C20.8208 10.5413 21.0969 10.401 21.3976 10.3441C21.6983 10.2872 22.0099 10.3164 22.2932 10.428C22.5764 10.5395 22.8185 10.7284 22.9888 10.9707C23.1591 11.2131 23.25 11.498 23.25 11.7895C23.25 12.1803 23.0867 12.5552 22.796 12.8315C22.5053 13.1079 22.1111 13.2632 21.7 13.2632Z" fill="#FEFEFF"/>
</svg>
