<svg width="31" height="29" viewBox="0 0 31 29" fill="none" xmlns="http://www.w3.org/2000/svg">
<path d="M12.6588 18.9354L12.6496 18.9191C12.4624 18.8858 12.2764 18.8493 12.0915 18.8094L12.0776 18.8059C10.3092 18.4239 8.67619 17.7499 7.2974 16.833C5.78055 15.8258 4.61407 14.5546 3.89966 13.1302C3.18525 11.7058 2.9446 10.1715 3.1987 8.66108C3.4528 7.15063 4.19393 5.70991 5.35748 4.46452C6.52102 3.21914 8.07164 2.20691 9.87415 1.51609C11.6766 0.825275 13.6763 0.476849 15.6987 0.501193C17.7212 0.525538 19.705 0.921914 21.4772 1.65576C23.2495 2.3896 24.7563 3.43864 25.8663 4.71139C26.9764 5.98414 27.6559 7.44197 27.8457 8.95776C27.9062 9.43961 27.3807 9.83279 26.7375 9.83279C26.0958 9.83279 25.5828 9.43961 25.5084 8.95893C25.3034 7.63273 24.637 6.37075 23.5764 5.30057C22.5158 4.23039 21.0987 3.38994 19.4682 2.86418C17.8378 2.33841 16.0518 2.14597 14.2909 2.30631C12.5299 2.46665 10.8564 2.97409 9.43958 3.77732C8.0227 4.58055 6.91267 5.65111 6.22169 6.88078C5.53071 8.11045 5.28327 9.45563 5.50439 10.7804C5.72551 12.1051 6.40735 13.3624 7.48098 14.4252C8.55462 15.488 9.98198 16.3185 11.6188 16.833L11.6808 16.8528C11.9908 16.9485 12.3101 17.0325 12.6356 17.106C12.9099 16.607 13.4057 16.1951 14.0384 15.9405C14.6711 15.6859 15.4016 15.6043 16.1052 15.7098C16.8089 15.8152 17.4421 16.1011 17.8971 16.5187C18.352 16.9362 18.6004 17.4597 18.6 17.9997C18.6007 18.536 18.356 19.056 17.907 19.4724C17.458 19.8888 16.8322 20.1761 16.1349 20.2859C15.4375 20.3957 14.7112 20.3214 14.0781 20.0754C13.4451 19.8295 12.9439 19.4269 12.6588 18.9354ZM11.1305 20.4194C8.37759 19.774 5.93643 18.5352 4.10905 16.8563C2.97711 16.9561 1.93327 17.3653 1.17577 18.0063C0.418269 18.6472 -0.000140265 19.4752 3.52728e-08 20.3331V21.1673C3.52728e-08 25.5051 6.5255 28.5 15.5 28.5C24.4745 28.5 31 25.3406 31 21.1673V20.3331C31 19.4048 30.5101 18.5145 29.638 17.8581C28.766 17.2018 27.5833 16.833 26.35 16.833H20.7002C21.0659 17.7547 20.9875 18.744 20.4788 19.6265C19.9702 20.509 19.064 21.2279 17.92 21.6567C16.7759 22.0854 15.4676 22.1964 14.2255 21.9701C12.9834 21.7437 11.8873 21.1946 11.1305 20.4194ZM23.25 9.83279C23.25 8.06873 22.2115 6.48785 20.5669 5.41799C19.7418 4.8822 18.7758 4.48341 17.732 4.24767C16.6883 4.01193 15.5902 3.94453 14.5095 4.04986C13.4287 4.1552 12.3897 4.43091 11.4601 4.85899C10.5305 5.28708 9.73134 5.85791 9.11471 6.53423C8.49809 7.21055 8.07789 7.97715 7.88154 8.78399C7.68519 9.59083 7.7171 10.4198 7.9752 11.2167C8.2333 12.0136 8.71178 12.7606 9.37941 13.4089C10.047 14.0572 10.8888 14.5923 11.8498 14.9791C12.8473 14.2939 14.1495 13.9147 15.5 13.9162C16.8509 13.9149 18.1535 14.294 19.1518 14.9791C20.3901 14.4812 21.4255 13.7394 22.1473 12.8329C22.8691 11.9265 23.2502 10.8896 23.25 9.83279Z" fill="#F5EDED"/>
</svg>
