<svg width="33" height="30" viewBox="0 0 33 30" fill="none" xmlns="http://www.w3.org/2000/svg">
<path d="M9.45455 29V26.6667C9.45455 23.5725 10.1968 20.605 11.5181 18.4171C12.8394 16.2292 14.6314 15 16.5 15M16.5 15C18.3686 15 20.1606 16.2292 21.4819 18.4171C22.8032 20.605 23.5455 23.5725 23.5455 26.6667V29M16.5 15C17.6211 15 18.6964 14.2625 19.4891 12.9497C20.2819 11.637 20.7273 9.85652 20.7273 8C20.7273 6.14348 20.2819 4.36301 19.4891 3.05025C18.6964 1.7375 17.6211 1 16.5 1C15.3789 1 14.3036 1.7375 13.5109 3.05025C12.7181 4.36301 12.2727 6.14348 12.2727 8C12.2727 9.85652 12.7181 11.637 13.5109 12.9497C14.3036 14.2625 15.3789 15 16.5 15ZM1 29V26.6667C1 24.8102 1.44537 23.0297 2.23814 21.7169C3.03091 20.4042 4.10613 19.6667 5.22727 19.6667M5.22727 19.6667C5.9747 19.6667 6.69152 19.175 7.22003 18.2998C7.74854 17.4247 8.04545 16.2377 8.04545 15C8.04545 13.7623 7.74854 12.5753 7.22003 11.7002C6.69152 10.825 5.9747 10.3333 5.22727 10.3333C4.47984 10.3333 3.76303 10.825 3.23452 11.7002C2.70601 12.5753 2.40909 13.7623 2.40909 15C2.40909 16.2377 2.70601 17.4247 3.23452 18.2998C3.76303 19.175 4.47984 19.6667 5.22727 19.6667ZM32 29V26.6667C32 24.8102 31.5546 23.0297 30.7619 21.7169C29.9691 20.4042 28.8939 19.6667 27.7727 19.6667M27.7727 19.6667C28.5202 19.6667 29.237 19.175 29.7655 18.2998C30.294 17.4247 30.5909 16.2377 30.5909 15C30.5909 13.7623 30.294 12.5753 29.7655 11.7002C29.237 10.825 28.5202 10.3333 27.7727 10.3333C27.0253 10.3333 26.3085 10.825 25.78 11.7002C25.2515 12.5753 24.9545 13.7623 24.9545 15C24.9545 16.2377 25.2515 17.4247 25.78 18.2998C26.3085 19.175 27.0253 19.6667 27.7727 19.6667Z" stroke="#FEFEFF" stroke-width="1.5" stroke-linecap="round" stroke-linejoin="round"/>
</svg>
