<svg width="31" height="28" viewBox="0 0 31 28" fill="none" xmlns="http://www.w3.org/2000/svg">
<path d="M30.047 3.14304e-09H27.9964V1.72289C27.9685 1.99054 27.8453 2.23814 27.6505 2.41807C27.4556 2.59799 27.2029 2.69753 26.941 2.69753C26.679 2.69753 26.4263 2.59799 26.2315 2.41807C26.0366 2.23814 25.9134 1.99054 25.8855 1.72289V0.0123952H16.5614V1.72289C16.5336 1.99054 16.4103 2.23814 16.2155 2.41807C16.0207 2.59799 15.768 2.69753 15.506 2.69753C15.244 2.69753 14.9913 2.59799 14.7965 2.41807C14.6016 2.23814 14.4784 1.99054 14.4505 1.72289V0.0123952H5.12645V1.72289C5.09856 1.99054 4.97535 2.23814 4.78051 2.41807C4.58566 2.59799 4.33296 2.69753 4.071 2.69753C3.80904 2.69753 3.55634 2.59799 3.3615 2.41807C3.16666 2.23814 3.04344 1.99054 3.01556 1.72289V0.0123952H0.952916C0.700187 0.0123952 0.457808 0.115559 0.279102 0.299194C0.100396 0.482829 0 0.731891 0 0.991589V27.0208C0.00312778 27.2795 0.104528 27.5267 0.282561 27.7096C0.460594 27.8926 0.701159 27.9968 0.952916 28H30.047C30.2997 28 30.5421 27.8968 30.7208 27.7132C30.8995 27.5296 30.9999 27.2805 30.9999 27.0208V0.991589C31.0015 0.861961 30.9781 0.733296 30.9309 0.61306C30.8837 0.492824 30.8138 0.383411 30.7251 0.291168C30.6365 0.198924 30.5309 0.125687 30.4145 0.0757043C30.2981 0.0257219 30.1732 -1.03834e-05 30.047 3.14304e-09ZM24.7517 8.98628L13.5821 20.4639C13.382 20.6655 13.1144 20.7808 12.8342 20.7862C12.695 20.7861 12.5572 20.7576 12.4288 20.7023C12.3004 20.647 12.184 20.5659 12.0864 20.4639L6.22411 14.4772C6.12341 14.3777 6.0433 14.2584 5.98858 14.1263C5.93386 13.9943 5.90565 13.8522 5.90565 13.7087C5.90565 13.5652 5.93386 13.4231 5.98858 13.2911C6.0433 13.159 6.12341 13.0397 6.22411 12.9402C6.42295 12.7374 6.69178 12.6235 6.97197 12.6235C7.25216 12.6235 7.52099 12.7374 7.71983 12.9402L12.798 18.1709L23.2198 7.44931C23.4231 7.27324 23.6833 7.182 23.949 7.19362C24.2146 7.20525 24.4664 7.31891 24.6544 7.51211C24.8424 7.70531 24.953 7.96398 24.9643 8.23696C24.9756 8.50994 24.8869 8.77735 24.7155 8.98628H24.7517Z" fill="#E3E5EF"/>
</svg>
