<svg width="31" height="28" viewBox="0 0 31 28" fill="none" xmlns="http://www.w3.org/2000/svg">
<path d="M15.5 0C14.4723 0 13.4867 0.327777 12.76 0.911223C12.0333 1.49467 11.625 2.28599 11.625 3.11111V3.64156C7.11063 4.92333 3.875 8.38133 3.875 12.4444V20.2222H1.9375C1.42364 20.2222 0.930833 20.3861 0.567481 20.6778C0.204129 20.9696 0 21.3652 0 21.7778C0 22.1903 0.204129 22.586 0.567481 22.8777C0.930833 23.1694 1.42364 23.3333 1.9375 23.3333H29.0625C29.5764 23.3333 30.0692 23.1694 30.4325 22.8777C30.7959 22.586 31 22.1903 31 21.7778C31 21.3652 30.7959 20.9696 30.4325 20.6778C30.0692 20.3861 29.5764 20.2222 29.0625 20.2222H27.125V12.4444C27.1253 10.5139 26.3802 8.63075 24.9923 7.05427C23.6043 5.47779 21.6419 4.2855 19.375 3.64156V3.11111C19.375 2.28599 18.9667 1.49467 18.24 0.911223C17.5133 0.327777 16.5277 0 15.5 0ZM15.5 28C14.4723 28 13.4867 27.6722 12.76 27.0888C12.0333 26.5053 11.625 25.714 11.625 24.8889H19.375C19.375 25.714 18.9667 26.5053 18.24 27.0888C17.5133 27.6722 16.5277 28 15.5 28Z" fill="#141516"/>
</svg>
